<?xml version="1.0" encoding="UTF-8" standalone="no"?>
<!DOCTYPE svg PUBLIC "-//W3C//DTD SVG 1.1//EN" "http://www.w3.org/Graphics/SVG/1.1/DTD/svg11.dtd">
<svg width="100%" height="100%" viewBox="0 0 771 1039" version="1.1" xmlns="http://www.w3.org/2000/svg" xmlns:xlink="http://www.w3.org/1999/xlink" xml:space="preserve" xmlns:serif="http://www.serif.com/" style="fill-rule:evenodd;clip-rule:evenodd;stroke-linejoin:round;stroke-miterlimit:2;">
    <g transform="matrix(1,0,0,1,-3385.16,-2137.75)">
        <g transform="matrix(4.15385,0,0,4.15385,4310.24,-8566.69)">
            <g transform="matrix(0.808347,0,0,0.454695,-3848.4,1601.09)">
                <g transform="matrix(0.29255,0.300273,-0.168904,0.520089,2593.25,38.2607)">
                    <path d="M7008,920C7008,933.261 7013.27,945.979 7022.65,955.355C7032.02,964.732 7044.74,970 7058,970C7088.54,970 7127.46,970 7158,970C7171.26,970 7183.98,964.732 7193.36,955.355C7202.73,945.979 7208,933.261 7208,920C7208,854.581 7208,609.17 7208,609.17C7208,609.17 6955.7,460.043 6955.81,460.165C6988.36,497.306 7008,545.935 7008,598.938C7008,713.546 7008,848.645 7008,920Z" style="fill:rgb(176,0,70);"/>
                </g>
                <g transform="matrix(0.29255,0.300273,-0.168904,0.520089,2593.25,38.2607)">
                    <path d="M7004.63,561.231L7208,609.17C7208,609.17 6955.7,460.043 6955.81,460.165C6980.46,488.295 6997.71,523.013 7004.63,561.231Z" style="fill-opacity:0.5;"/>
                </g>
                <g transform="matrix(0.29255,-0.300273,0.221169,0.681024,2217.93,4447.98)">
                    <path d="M7924.86,549.847L7709.36,233.042C7709.36,233.042 7721.04,253.035 7722.1,273.24C7723.57,301.029 7717.51,333.557 7713.01,343.984C7713.01,343.984 7708,691.124 7708,804.141C7708,825.229 7730.39,842.325 7758,842.325C7791.51,842.325 7835.44,842.325 7868.79,842.325C7896.1,842.325 7918.35,825.598 7918.78,804.75C7919.9,751.534 7924.86,549.847 7924.86,549.847Z" style="fill:rgb(214,55,88);"/>
                </g>
                <g transform="matrix(0.29255,-0.300273,0.221169,0.681024,2217.93,4447.98)">
                    <path d="M7924.86,549.847L7709.36,233.042C7709.36,233.042 7721.04,253.035 7722.1,273.24C7723.57,301.029 7717.51,333.557 7713.01,343.984L7924.86,549.847Z" style="fill-opacity:0.5;"/>
                </g>
                <g transform="matrix(0.29255,0.300273,-0.168904,0.520089,2593.25,38.2607)">
                    <path d="M6716.38,385.893C6741.99,387.35 7295.18,411.064 7295.18,411.479C7246.82,380.326 7128.22,305.35 7024.94,248.412C6929.63,195.874 6869.76,188.909 6822.32,186.185C6822.32,186.185 6746.59,183.472 6719.53,182.503C6705.96,182.017 6692.79,187.065 6683.02,196.488C6673.25,205.911 6667.74,218.899 6667.74,232.471C6667.74,263.664 6669.22,305.639 6669.22,335.974C6669.22,362.485 6689.91,384.388 6716.38,385.893Z" style="fill:rgb(255,94,128);"/>
                </g>
            </g>
        </g>
    </g>
</svg>
