<?xml version="1.0" encoding="UTF-8" standalone="no"?>
<!DOCTYPE svg PUBLIC "-//W3C//DTD SVG 1.1//EN" "http://www.w3.org/Graphics/SVG/1.1/DTD/svg11.dtd">
<svg width="100%" height="100%" viewBox="0 0 771 1039" version="1.1" xmlns="http://www.w3.org/2000/svg" xmlns:xlink="http://www.w3.org/1999/xlink" xml:space="preserve" xmlns:serif="http://www.serif.com/" style="fill-rule:evenodd;clip-rule:evenodd;stroke-linejoin:round;stroke-miterlimit:2;">
    <g transform="matrix(1,0,0,1,-2229.92,-2137.75)">
        <g transform="matrix(4.15385,0,0,4.15385,3155,-8566.69)">
            <g transform="matrix(0.808347,0,0,0.454695,-3848.4,1601.09)">
                <g transform="matrix(0.297819,0,0,0.529455,4439.18,1014.45)">
                    <path d="M360.552,3147.88L536.835,2842.55L364.248,2680.12L364.279,2680.03C359.51,2693.34 353.487,2706.41 346.176,2719.07C281.178,2831.65 204.558,2964.36 164.09,3034.45C156.569,3047.48 154.531,3062.96 158.424,3077.49C162.317,3092.02 171.823,3104.4 184.849,3111.93C214.849,3129.25 253.079,3151.32 283.08,3168.64C296.106,3176.16 311.586,3178.2 326.115,3174.3C340.644,3170.41 353.031,3160.91 360.552,3147.88Z" style="fill:white;"/>
                </g>
                <g transform="matrix(0.297819,0,0,0.529455,4439.18,1014.45)">
                    <path d="M917.92,3029.12C884.297,2968.67 734.59,2697.8 734.59,2697.8L373.608,2553.15C373.608,2553.15 626.482,3002.51 710.411,3147.88C726.073,3175.01 760.758,3184.3 787.884,3168.64C820.805,3149.63 863.957,3124.72 896.716,3105.8C923.536,3090.32 932.975,3056.18 917.92,3029.12Z" style="fill:white;"/>
                </g>
                <g transform="matrix(0.29255,0.300273,-0.168904,0.520089,2593.25,38.2607)">
                    <path d="M6716.38,385.893C6741.99,387.35 7295.18,411.064 7295.18,411.479C7246.82,380.326 7128.22,305.35 7024.94,248.412C6929.63,195.874 6869.76,188.909 6822.32,186.185C6822.32,186.185 6746.59,183.472 6719.53,182.503C6705.96,182.017 6692.79,187.065 6683.02,196.488C6673.25,205.911 6667.74,218.899 6667.74,232.471C6667.74,263.664 6669.22,305.639 6669.22,335.974C6669.22,362.485 6689.91,384.388 6716.38,385.893Z" style="fill:white;"/>
                </g>
            </g>
        </g>
    </g>
</svg>
