<?xml version="1.0" encoding="UTF-8" standalone="no"?>
<!DOCTYPE svg PUBLIC "-//W3C//DTD SVG 1.1//EN" "http://www.w3.org/Graphics/SVG/1.1/DTD/svg11.dtd">
<svg width="100%" height="100%" viewBox="0 0 1080 1080" version="1.1" xmlns="http://www.w3.org/2000/svg" xmlns:xlink="http://www.w3.org/1999/xlink" xml:space="preserve" xmlns:serif="http://www.serif.com/" style="fill-rule:evenodd;clip-rule:evenodd;stroke-linejoin:round;stroke-miterlimit:2;">
    <g transform="matrix(1,0,0,1,-12553,0)">
        <g id="Artboard2" transform="matrix(0.5625,0,0,1,8892.22,0)">
            <rect x="6508" y="0" width="1920" height="1080" style="fill:none;"/>
            <g transform="matrix(0.709703,0,0,0.709703,2207.02,182.313)">
                <g>
                    <g transform="matrix(1.5396,-0.5,1.16394,1.13401,-5089.41,3879.66)">
                        <path d="M7918,300C7918,300 7805.43,335.453 7745.12,354.445C7722.66,361.521 7708,378.247 7708,396.805C7708,478.201 7708,700.036 7708,796.504C7708,821.81 7734.86,842.325 7768,842.325C7796.22,842.325 7829.78,842.325 7858,842.325C7891.14,842.325 7918,821.81 7918,796.504C7918,665.713 7918,300 7918,300Z"/>
                    </g>
                    <g transform="matrix(1.5396,0.5,-0.888889,0.866025,-3114.2,-3463.18)">
                        <path d="M7008,910C7008,925.913 7014.32,941.174 7025.57,952.426C7036.83,963.679 7052.09,970 7068,970C7093.3,970 7122.7,970 7148,970C7181.14,970 7208,943.137 7208,910C7208,840.988 7208,721.491 7208,599.999C7208,379.086 7028.91,200 6808,200L6694.22,200C6661.08,200 6634.22,226.863 6634.22,260C6634.22,285.303 6634.22,314.697 6634.22,340C6634.22,373.137 6661.08,400 6694.22,400C6723.08,400 6759.6,400 6797.43,400C6913.72,400 7008,494.277 7008,610.574C7008,717.357 7008,839.13 7008,910Z"/>
                    </g>
                </g>
            </g>
        </g>
    </g>
</svg>
