<?xml version="1.0" encoding="UTF-8" standalone="no"?>
<!DOCTYPE svg PUBLIC "-//W3C//DTD SVG 1.1//EN" "http://www.w3.org/Graphics/SVG/1.1/DTD/svg11.dtd">
<svg width="100%" height="100%" viewBox="0 0 1112 350" version="1.1" xmlns="http://www.w3.org/2000/svg" xmlns:xlink="http://www.w3.org/1999/xlink" xml:space="preserve" xmlns:serif="http://www.serif.com/" style="fill-rule:evenodd;clip-rule:evenodd;stroke-linejoin:round;stroke-miterlimit:2;">
    <g transform="matrix(1,0,0,1,-17842,-3567.45)">
        <g id="Artboard2" transform="matrix(1,0,0,1,10930,3204)">
            <rect x="6508" y="0" width="1920" height="1080" style="fill:none;"/>
            <g transform="matrix(1,0,0,1,-78.7903,-176.548)">
                <g transform="matrix(0.696581,0,0,0.696581,3163.06,375.265)">
                    <g transform="matrix(0.469284,-0.270941,0.354781,0.614498,3086.67,2319.15)">
                        <path d="M7918,316.688L7708,366.137C7708,366.137 7708,691.124 7708,804.141C7708,825.229 7730.39,842.325 7758,842.325L7868,842.325C7895.61,842.325 7918,825.229 7918,804.141C7918,680.644 7918,316.688 7918,316.688Z" style="fill:url(#_Linear1);"/>
                    </g>
                    <g transform="matrix(0.469284,0.270941,-0.270941,0.469284,3688.73,-1659.81)">
                        <path d="M7008,920C7008,933.261 7013.27,945.979 7022.65,955.355C7032.02,964.732 7044.74,970 7058,970C7088.54,970 7127.46,970 7158,970C7171.26,970 7183.98,964.732 7193.36,955.355C7202.73,945.979 7208,933.261 7208,920C7208,852.974 7208,727.586 7208,599.999C7208,379.086 7028.91,200 6808,200L6684.22,200C6670.96,200 6658.24,205.268 6648.86,214.645C6639.49,224.021 6634.22,236.739 6634.22,250C6634.22,280.541 6634.22,319.459 6634.22,350C6634.22,363.261 6639.49,375.979 6648.86,385.355C6658.24,394.732 6670.96,400 6684.22,400C6714.38,400 6755.08,400 6797.43,400C6913.72,400 7008,494.277 7008,610.574C7008,722.566 7008,851.046 7008,920Z" style="fill:url(#_Linear2);"/>
                    </g>
                </g>
                <g transform="matrix(1,0,0,1,82.7928,186.1)">
                    <g transform="matrix(0.71206,-6.76472e-17,6.76472e-17,0.71206,-3972.65,210.751)">
                        <g transform="matrix(293.17,0,0,293.17,15260,430)">
                            <path d="M0.22,-0C0.191,-0 0.165,-0.008 0.142,-0.024C0.119,-0.04 0.102,-0.062 0.089,-0.09C0.076,-0.117 0.07,-0.149 0.07,-0.185L0.07,-0.731C0.07,-0.746 0.075,-0.758 0.084,-0.767C0.093,-0.776 0.105,-0.781 0.12,-0.781C0.135,-0.781 0.147,-0.776 0.156,-0.767C0.165,-0.758 0.17,-0.746 0.17,-0.731L0.17,-0.185C0.17,-0.16 0.175,-0.14 0.184,-0.124C0.193,-0.108 0.205,-0.1 0.22,-0.1L0.245,-0.1C0.258,-0.1 0.269,-0.095 0.278,-0.086C0.286,-0.077 0.29,-0.065 0.29,-0.05C0.29,-0.035 0.284,-0.023 0.271,-0.014C0.258,-0.005 0.242,-0 0.222,-0L0.22,-0Z" style="fill-rule:nonzero;"/>
                        </g>
                        <g transform="matrix(293.17,0,0,293.17,15339.2,430)">
                            <path d="M0.318,0.004C0.269,0.004 0.226,-0.008 0.187,-0.033C0.148,-0.057 0.118,-0.09 0.096,-0.132C0.073,-0.173 0.062,-0.22 0.062,-0.273C0.062,-0.326 0.074,-0.373 0.099,-0.415C0.123,-0.457 0.156,-0.49 0.198,-0.515C0.239,-0.539 0.286,-0.551 0.338,-0.551C0.39,-0.551 0.437,-0.539 0.478,-0.515C0.519,-0.49 0.552,-0.457 0.577,-0.415C0.601,-0.373 0.613,-0.326 0.613,-0.273L0.574,-0.273C0.574,-0.22 0.563,-0.173 0.541,-0.132C0.518,-0.09 0.488,-0.057 0.449,-0.033C0.41,-0.008 0.367,0.004 0.318,0.004ZM0.338,-0.086C0.372,-0.086 0.402,-0.094 0.429,-0.111C0.456,-0.127 0.477,-0.149 0.492,-0.178C0.507,-0.206 0.515,-0.238 0.515,-0.273C0.515,-0.309 0.507,-0.341 0.492,-0.37C0.477,-0.398 0.456,-0.42 0.429,-0.437C0.402,-0.453 0.372,-0.461 0.338,-0.461C0.305,-0.461 0.275,-0.453 0.248,-0.437C0.221,-0.42 0.199,-0.398 0.184,-0.37C0.168,-0.341 0.16,-0.309 0.16,-0.273C0.16,-0.238 0.168,-0.206 0.184,-0.178C0.199,-0.149 0.221,-0.127 0.248,-0.111C0.275,-0.094 0.305,-0.086 0.338,-0.086ZM0.562,0.001C0.547,0.001 0.535,-0.004 0.526,-0.014C0.516,-0.023 0.511,-0.035 0.511,-0.05L0.511,-0.203L0.53,-0.309L0.613,-0.273L0.613,-0.05C0.613,-0.035 0.608,-0.023 0.599,-0.014C0.589,-0.004 0.577,0.001 0.562,0.001Z" style="fill-rule:nonzero;"/>
                        </g>
                        <g transform="matrix(293.17,0,0,293.17,15537,430)">
                            <path d="M0.808,0.001C0.793,0.001 0.781,-0.004 0.772,-0.014C0.762,-0.023 0.757,-0.035 0.757,-0.05L0.757,-0.336C0.757,-0.378 0.747,-0.409 0.726,-0.43C0.705,-0.45 0.678,-0.46 0.645,-0.46C0.61,-0.46 0.582,-0.448 0.56,-0.424C0.537,-0.4 0.526,-0.369 0.526,-0.332L0.443,-0.332C0.443,-0.375 0.452,-0.413 0.471,-0.447C0.49,-0.48 0.516,-0.505 0.55,-0.524C0.583,-0.543 0.622,-0.552 0.665,-0.552C0.703,-0.552 0.737,-0.544 0.766,-0.527C0.795,-0.51 0.818,-0.486 0.835,-0.454C0.851,-0.421 0.859,-0.382 0.859,-0.336L0.859,-0.05C0.859,-0.035 0.854,-0.023 0.845,-0.014C0.836,-0.004 0.823,0.001 0.808,0.001ZM0.141,0.001C0.126,0.001 0.114,-0.004 0.105,-0.014C0.095,-0.023 0.09,-0.035 0.09,-0.05L0.09,-0.495C0.09,-0.51 0.095,-0.523 0.105,-0.532C0.114,-0.541 0.126,-0.546 0.141,-0.546C0.156,-0.546 0.169,-0.541 0.178,-0.532C0.187,-0.523 0.192,-0.51 0.192,-0.495L0.192,-0.05C0.192,-0.035 0.187,-0.023 0.178,-0.014C0.169,-0.004 0.156,0.001 0.141,0.001ZM0.475,0.001C0.46,0.001 0.448,-0.004 0.439,-0.014C0.429,-0.023 0.424,-0.035 0.424,-0.05L0.424,-0.336C0.424,-0.378 0.414,-0.409 0.393,-0.43C0.372,-0.45 0.345,-0.46 0.312,-0.46C0.277,-0.46 0.249,-0.448 0.226,-0.424C0.203,-0.4 0.192,-0.369 0.192,-0.332L0.129,-0.332C0.129,-0.375 0.138,-0.413 0.155,-0.447C0.172,-0.48 0.196,-0.505 0.227,-0.524C0.258,-0.543 0.293,-0.552 0.332,-0.552C0.37,-0.552 0.404,-0.544 0.433,-0.527C0.462,-0.51 0.485,-0.486 0.501,-0.454C0.518,-0.421 0.526,-0.382 0.526,-0.336L0.526,-0.05C0.526,-0.035 0.521,-0.023 0.512,-0.014C0.503,-0.004 0.49,0.001 0.475,0.001Z" style="fill-rule:nonzero;"/>
                        </g>
                        <g transform="matrix(293.17,0,0,293.17,15812,430)">
                            <path d="M0.365,0.004C0.313,0.004 0.266,-0.008 0.225,-0.033C0.184,-0.057 0.151,-0.09 0.127,-0.132C0.103,-0.174 0.091,-0.221 0.09,-0.274L0.09,-0.73C0.09,-0.745 0.095,-0.758 0.105,-0.767C0.114,-0.776 0.126,-0.781 0.141,-0.781C0.156,-0.781 0.169,-0.776 0.178,-0.767C0.187,-0.758 0.192,-0.745 0.192,-0.73L0.192,-0.46C0.215,-0.488 0.244,-0.51 0.277,-0.527C0.31,-0.543 0.346,-0.551 0.385,-0.551C0.434,-0.551 0.477,-0.539 0.516,-0.515C0.555,-0.49 0.585,-0.457 0.608,-0.416C0.63,-0.374 0.641,-0.327 0.641,-0.274C0.641,-0.221 0.629,-0.174 0.605,-0.132C0.58,-0.09 0.547,-0.057 0.506,-0.033C0.465,-0.008 0.418,0.004 0.365,0.004ZM0.365,-0.086C0.399,-0.086 0.429,-0.094 0.456,-0.111C0.483,-0.127 0.504,-0.149 0.52,-0.178C0.535,-0.207 0.543,-0.239 0.543,-0.274C0.543,-0.31 0.535,-0.342 0.52,-0.37C0.504,-0.398 0.483,-0.42 0.456,-0.437C0.429,-0.453 0.399,-0.461 0.365,-0.461C0.332,-0.461 0.302,-0.453 0.275,-0.437C0.248,-0.42 0.226,-0.398 0.211,-0.37C0.196,-0.342 0.188,-0.31 0.188,-0.274C0.188,-0.239 0.196,-0.207 0.211,-0.178C0.226,-0.149 0.248,-0.127 0.275,-0.111C0.302,-0.094 0.332,-0.086 0.365,-0.086Z" style="fill-rule:nonzero;"/>
                        </g>
                        <g transform="matrix(293.17,0,0,293.17,16018.1,430)">
                            <path d="M0.338,0.004C0.286,0.004 0.239,-0.008 0.198,-0.033C0.156,-0.057 0.123,-0.09 0.099,-0.132C0.074,-0.174 0.062,-0.221 0.062,-0.274C0.062,-0.327 0.073,-0.374 0.096,-0.416C0.118,-0.457 0.148,-0.49 0.187,-0.515C0.226,-0.539 0.269,-0.551 0.318,-0.551C0.357,-0.551 0.394,-0.543 0.427,-0.527C0.46,-0.51 0.488,-0.488 0.511,-0.46L0.511,-0.73C0.511,-0.745 0.516,-0.758 0.526,-0.767C0.535,-0.776 0.547,-0.781 0.562,-0.781C0.577,-0.781 0.59,-0.776 0.599,-0.767C0.608,-0.758 0.613,-0.745 0.613,-0.73L0.613,-0.274C0.613,-0.221 0.601,-0.174 0.577,-0.132C0.552,-0.09 0.519,-0.057 0.478,-0.033C0.437,-0.008 0.39,0.004 0.338,0.004ZM0.338,-0.086C0.372,-0.086 0.402,-0.094 0.429,-0.111C0.456,-0.127 0.477,-0.149 0.492,-0.178C0.507,-0.207 0.515,-0.239 0.515,-0.274C0.515,-0.31 0.507,-0.342 0.492,-0.37C0.477,-0.398 0.456,-0.42 0.429,-0.437C0.402,-0.453 0.372,-0.461 0.338,-0.461C0.305,-0.461 0.275,-0.453 0.248,-0.437C0.221,-0.42 0.199,-0.398 0.184,-0.37C0.168,-0.342 0.16,-0.31 0.16,-0.274C0.16,-0.239 0.168,-0.207 0.184,-0.178C0.199,-0.149 0.221,-0.127 0.248,-0.111C0.275,-0.094 0.305,-0.086 0.338,-0.086Z" style="fill-rule:nonzero;"/>
                        </g>
                        <g transform="matrix(293.17,0,0,293.17,16224.2,430)">
                            <path d="M0.318,0.004C0.269,0.004 0.226,-0.008 0.187,-0.033C0.148,-0.057 0.118,-0.09 0.096,-0.132C0.073,-0.173 0.062,-0.22 0.062,-0.273C0.062,-0.326 0.074,-0.373 0.099,-0.415C0.123,-0.457 0.156,-0.49 0.198,-0.515C0.239,-0.539 0.286,-0.551 0.338,-0.551C0.39,-0.551 0.437,-0.539 0.478,-0.515C0.519,-0.49 0.552,-0.457 0.577,-0.415C0.601,-0.373 0.613,-0.326 0.613,-0.273L0.574,-0.273C0.574,-0.22 0.563,-0.173 0.541,-0.132C0.518,-0.09 0.488,-0.057 0.449,-0.033C0.41,-0.008 0.367,0.004 0.318,0.004ZM0.338,-0.086C0.372,-0.086 0.402,-0.094 0.429,-0.111C0.456,-0.127 0.477,-0.149 0.492,-0.178C0.507,-0.206 0.515,-0.238 0.515,-0.273C0.515,-0.309 0.507,-0.341 0.492,-0.37C0.477,-0.398 0.456,-0.42 0.429,-0.437C0.402,-0.453 0.372,-0.461 0.338,-0.461C0.305,-0.461 0.275,-0.453 0.248,-0.437C0.221,-0.42 0.199,-0.398 0.184,-0.37C0.168,-0.341 0.16,-0.309 0.16,-0.273C0.16,-0.238 0.168,-0.206 0.184,-0.178C0.199,-0.149 0.221,-0.127 0.248,-0.111C0.275,-0.094 0.305,-0.086 0.338,-0.086ZM0.562,0.001C0.547,0.001 0.535,-0.004 0.526,-0.014C0.516,-0.023 0.511,-0.035 0.511,-0.05L0.511,-0.203L0.53,-0.309L0.613,-0.273L0.613,-0.05C0.613,-0.035 0.608,-0.023 0.599,-0.014C0.589,-0.004 0.577,0.001 0.562,0.001Z" style="fill-rule:nonzero;"/>
                        </g>
                    </g>
                    <g transform="matrix(0.71206,-6.76472e-17,6.76472e-17,0.71206,-3757.58,392.979)">
                        <g transform="matrix(293.17,0,0,293.17,15260,430)">
                            <path d="M0.338,0.004C0.285,0.004 0.237,-0.008 0.196,-0.033C0.154,-0.057 0.121,-0.09 0.098,-0.132C0.074,-0.173 0.062,-0.22 0.062,-0.273C0.062,-0.327 0.074,-0.375 0.097,-0.417C0.12,-0.459 0.152,-0.492 0.193,-0.516C0.234,-0.539 0.28,-0.551 0.333,-0.551C0.372,-0.551 0.408,-0.544 0.441,-0.529C0.474,-0.514 0.503,-0.491 0.529,-0.461C0.538,-0.45 0.542,-0.439 0.539,-0.428C0.536,-0.417 0.529,-0.407 0.517,-0.398C0.508,-0.391 0.497,-0.389 0.486,-0.392C0.475,-0.394 0.464,-0.4 0.455,-0.409C0.422,-0.444 0.382,-0.461 0.333,-0.461C0.299,-0.461 0.269,-0.453 0.243,-0.438C0.217,-0.422 0.197,-0.4 0.182,-0.372C0.167,-0.344 0.16,-0.311 0.16,-0.273C0.16,-0.237 0.168,-0.205 0.183,-0.177C0.198,-0.149 0.218,-0.127 0.245,-0.111C0.272,-0.094 0.303,-0.086 0.338,-0.086C0.361,-0.086 0.382,-0.089 0.4,-0.095C0.417,-0.1 0.433,-0.109 0.448,-0.121C0.459,-0.13 0.47,-0.135 0.481,-0.136C0.492,-0.137 0.502,-0.133 0.511,-0.126C0.522,-0.117 0.529,-0.106 0.53,-0.095C0.531,-0.083 0.527,-0.072 0.518,-0.063C0.47,-0.018 0.41,0.004 0.338,0.004Z" style="fill-rule:nonzero;"/>
                        </g>
                        <g transform="matrix(293.17,0,0,293.17,15436.3,370.392)">
                            <path d="M0.22,0.207C0.191,0.207 0.165,0.199 0.142,0.183C0.119,0.167 0.102,0.145 0.089,0.118C0.076,0.09 0.07,0.058 0.07,0.022L0.07,-0.731C0.07,-0.746 0.075,-0.758 0.084,-0.767C0.093,-0.776 0.105,-0.781 0.12,-0.781C0.135,-0.781 0.15,-0.774 0.159,-0.765C0.168,-0.756 0.173,-0.744 0.173,-0.729L0.173,0.024C0.173,0.049 0.178,0.069 0.187,0.085C0.196,0.101 0.201,0.107 0.22,0.107L0.245,0.107C0.258,0.107 0.269,0.112 0.277,0.121C0.286,0.131 0.29,0.143 0.29,0.157C0.29,0.172 0.284,0.184 0.271,0.193C0.258,0.203 0.242,0.207 0.222,0.207L0.22,0.207Z" style="fill-rule:nonzero;"/>
                        </g>
                        <g transform="matrix(293.17,0,0,293.17,15524.1,430)">
                            <path d="M0.151,-0C0.136,-0 0.124,-0.005 0.115,-0.015C0.105,-0.024 0.1,-0.036 0.1,-0.051L0.1,-0.496C0.1,-0.511 0.105,-0.524 0.115,-0.533C0.124,-0.542 0.136,-0.547 0.151,-0.547C0.166,-0.547 0.179,-0.542 0.188,-0.533C0.197,-0.524 0.202,-0.511 0.202,-0.496L0.202,-0.051C0.202,-0.036 0.197,-0.024 0.188,-0.015C0.179,-0.005 0.166,-0 0.151,-0ZM0.151,-0.636C0.133,-0.636 0.117,-0.643 0.105,-0.656C0.092,-0.669 0.085,-0.684 0.085,-0.702C0.085,-0.72 0.092,-0.736 0.105,-0.749C0.117,-0.761 0.133,-0.768 0.151,-0.768C0.169,-0.768 0.185,-0.761 0.198,-0.749C0.211,-0.736 0.217,-0.72 0.217,-0.702C0.217,-0.684 0.211,-0.669 0.198,-0.656C0.185,-0.643 0.169,-0.636 0.151,-0.636Z" style="fill-rule:nonzero;"/>
                        </g>
                        <g transform="matrix(293.17,0,0,293.17,15612.7,430)">
                            <path d="M0.347,0.004C0.292,0.004 0.243,-0.008 0.2,-0.032C0.157,-0.055 0.123,-0.088 0.099,-0.13C0.074,-0.171 0.062,-0.219 0.062,-0.273C0.062,-0.328 0.074,-0.376 0.097,-0.418C0.119,-0.459 0.151,-0.492 0.192,-0.516C0.233,-0.539 0.279,-0.551 0.332,-0.551C0.384,-0.551 0.429,-0.54 0.466,-0.517C0.503,-0.494 0.532,-0.462 0.552,-0.422C0.571,-0.381 0.581,-0.335 0.581,-0.282C0.581,-0.269 0.577,-0.259 0.568,-0.251C0.559,-0.242 0.548,-0.238 0.535,-0.238L0.132,-0.238L0.132,-0.318L0.532,-0.318L0.491,-0.29C0.49,-0.323 0.484,-0.353 0.471,-0.38C0.458,-0.406 0.44,-0.427 0.417,-0.442C0.394,-0.457 0.365,-0.465 0.332,-0.465C0.294,-0.465 0.262,-0.457 0.234,-0.44C0.207,-0.423 0.187,-0.401 0.173,-0.372C0.159,-0.343 0.152,-0.31 0.152,-0.273C0.152,-0.236 0.16,-0.204 0.177,-0.175C0.194,-0.146 0.217,-0.124 0.246,-0.107C0.275,-0.09 0.309,-0.082 0.347,-0.082C0.368,-0.082 0.389,-0.086 0.41,-0.094C0.432,-0.101 0.45,-0.11 0.463,-0.12C0.473,-0.127 0.484,-0.131 0.496,-0.132C0.507,-0.132 0.517,-0.128 0.526,-0.121C0.537,-0.111 0.543,-0.1 0.544,-0.088C0.545,-0.076 0.539,-0.066 0.528,-0.057C0.505,-0.039 0.477,-0.024 0.444,-0.013C0.41,-0.002 0.378,0.004 0.347,0.004Z" style="fill-rule:nonzero;"/>
                        </g>
                        <g transform="matrix(293.17,0,0,293.17,15794.7,430)">
                            <path d="M0.552,0.001C0.537,0.001 0.525,-0.004 0.516,-0.014C0.506,-0.023 0.501,-0.035 0.501,-0.05L0.501,-0.296C0.501,-0.334 0.494,-0.365 0.48,-0.389C0.466,-0.413 0.447,-0.431 0.424,-0.443C0.4,-0.454 0.373,-0.46 0.342,-0.46C0.314,-0.46 0.289,-0.454 0.266,-0.443C0.243,-0.432 0.225,-0.417 0.212,-0.398C0.199,-0.379 0.192,-0.357 0.192,-0.332L0.129,-0.332C0.129,-0.374 0.139,-0.411 0.16,-0.445C0.18,-0.477 0.208,-0.504 0.243,-0.523C0.278,-0.542 0.318,-0.552 0.362,-0.552C0.408,-0.552 0.449,-0.542 0.486,-0.523C0.522,-0.503 0.551,-0.474 0.572,-0.436C0.593,-0.398 0.603,-0.351 0.603,-0.296L0.603,-0.05C0.603,-0.035 0.598,-0.023 0.589,-0.014C0.579,-0.004 0.567,0.001 0.552,0.001ZM0.141,0.001C0.126,0.001 0.114,-0.004 0.105,-0.014C0.095,-0.023 0.09,-0.035 0.09,-0.05L0.09,-0.496C0.09,-0.511 0.095,-0.524 0.105,-0.533C0.114,-0.542 0.126,-0.547 0.141,-0.547C0.156,-0.547 0.169,-0.542 0.178,-0.533C0.187,-0.524 0.192,-0.511 0.192,-0.496L0.192,-0.05C0.192,-0.035 0.187,-0.023 0.178,-0.014C0.169,-0.004 0.156,0.001 0.141,0.001Z" style="fill-rule:nonzero;"/>
                        </g>
                        <g transform="matrix(293.17,0,0,293.17,15994.7,430)">
                            <path d="M0.289,-0C0.256,-0 0.226,-0.009 0.199,-0.025C0.172,-0.043 0.151,-0.066 0.136,-0.095C0.121,-0.124 0.113,-0.157 0.113,-0.194L0.113,-0.671C0.113,-0.686 0.118,-0.698 0.127,-0.707C0.136,-0.716 0.148,-0.721 0.163,-0.721C0.178,-0.721 0.19,-0.716 0.199,-0.707C0.208,-0.698 0.213,-0.686 0.213,-0.671L0.213,-0.194C0.213,-0.167 0.22,-0.145 0.235,-0.127C0.25,-0.109 0.268,-0.1 0.289,-0.1L0.323,-0.1C0.335,-0.1 0.345,-0.095 0.354,-0.086C0.362,-0.077 0.366,-0.065 0.366,-0.05C0.366,-0.035 0.361,-0.023 0.349,-0.014C0.339,-0.005 0.324,-0 0.307,-0L0.289,-0ZM0.067,-0.441C0.053,-0.441 0.042,-0.445 0.033,-0.453C0.024,-0.461 0.02,-0.471 0.02,-0.483C0.02,-0.496 0.024,-0.507 0.033,-0.515C0.042,-0.523 0.053,-0.527 0.067,-0.527L0.298,-0.527C0.312,-0.527 0.323,-0.523 0.332,-0.515C0.341,-0.507 0.345,-0.496 0.345,-0.483C0.345,-0.471 0.341,-0.461 0.332,-0.453C0.323,-0.445 0.312,-0.441 0.298,-0.441L0.067,-0.441Z" style="fill-rule:nonzero;"/>
                        </g>
                    </g>
                </g>
            </g>
        </g>
    </g>
    <defs>
        <linearGradient id="_Linear1" x1="0" y1="0" x2="1" y2="0" gradientUnits="userSpaceOnUse" gradientTransform="matrix(-3.49365,386.464,-506.051,-2.66805,7822.72,407.903)"><stop offset="0" style="stop-color:rgb(0,54,115);stop-opacity:1"/><stop offset="1" style="stop-color:rgb(0,120,255);stop-opacity:1"/></linearGradient>
        <linearGradient id="_Linear2" x1="0" y1="0" x2="1" y2="0" gradientUnits="userSpaceOnUse" gradientTransform="matrix(-330.137,202.151,-202.151,-330.137,7140.47,466.281)"><stop offset="0" style="stop-color:rgb(0,120,255);stop-opacity:1"/><stop offset="1" style="stop-color:rgb(108,177,255);stop-opacity:1"/></linearGradient>
    </defs>
</svg>
